<?xml version="1.0" encoding="UTF-8"?>
<svg xmlns="http://www.w3.org/2000/svg" width="16" height="16" viewBox="0 0 16 16">
  <!-- Shield outline with pixel grid inside - symbolic icon for OLED Care -->
  <!-- Uses only #222222 fill so GNOME Shell can recolor it to match the theme -->
  <g fill="#222222">
    <!-- Shield shape -->
    <path d="M8 1 C5.5 1 3.5 1.5 2 2.5 L2 7 C2 10.5 4.5 13.5 8 15 C11.5 13.5 14 10.5 14 7 L14 2.5 C12.5 1.5 10.5 1 8 1 Z M8 2.2 C10 2.2 11.7 2.6 13 3.3 L13 7 C13 10 10.9 12.6 8 13.8 C5.1 12.6 3 10 3 7 L3 3.3 C4.3 2.6 6 2.2 8 2.2 Z"/>
    <!-- Pixel dots inside shield -->
    <rect x="5.5" y="5" width="1.5" height="1.5" rx="0.3"/>
    <rect x="9" y="5" width="1.5" height="1.5" rx="0.3"/>
    <rect x="5.5" y="8" width="1.5" height="1.5" rx="0.3"/>
    <rect x="9" y="8" width="1.5" height="1.5" rx="0.3"/>
    <rect x="7.25" y="6.5" width="1.5" height="1.5" rx="0.3"/>
  </g>
</svg>
